<svg width="600" height="550" viewBox="0 0 600 550" fill="none" xmlns="http://www.w3.org/2000/svg">
<rect width="600" height="550" fill="#394D99"/>
<rect x="58" y="41" width="483" height="113" fill="#2D376C"/>
<path d="M176.78 101.64C176.78 100.56 176.88 99.8 177.08 99.36C177.32 98.92 177.72 98.7 178.28 98.7C178.88 98.7 179.66 99.26 180.62 100.38C181.58 101.5 182.66 102.62 183.86 103.74C185.1 104.86 186.32 105.42 187.52 105.42C188.44 105.42 189.36 104.14 190.28 101.58C191.2 99.02 192.18 95.74 193.22 91.74C194.26 87.7 194.92 85 195.2 83.64C195.84 80.48 196.3 78.56 196.58 77.88C195.5 78.12 193.7 78.42 191.18 78.78C188.7 79.1 187.04 79.26 186.2 79.26C185.36 79.26 184.68 79 184.16 78.48C183.64 77.96 183.38 77.34 183.38 76.62C183.38 75.18 184.9 73.88 187.94 72.72C191.02 71.56 194.08 70.76 197.12 70.32C200.2 69.84 202.32 69.6 203.48 69.6C205.72 69.6 206.84 70.32 206.84 71.76C206.84 72.36 206.12 74.86 204.68 79.26C203.24 83.66 202.36 86.54 202.04 87.9C199.88 97.06 198.26 102.98 197.18 105.66C195.5 109.86 193.34 112.3 190.7 112.98C190.06 113.14 189.42 113.22 188.78 113.22C185.94 113.22 183.22 111.86 180.62 109.14C178.06 106.38 176.78 103.88 176.78 101.64ZM224.44 102.9C226.76 100.82 228.78 98.22 230.5 95.1C232.22 91.94 233.08 88.92 233.08 86.04C233.08 83.16 232.72 80.94 232 79.38C231.28 77.82 230.28 77.04 229 77.04C227.72 77.04 226.04 78.2 223.96 80.52C221.92 82.8 220.06 85.8 218.38 89.52C216.74 93.24 215.92 96.8 215.92 100.2C215.92 101.92 216.16 103.32 216.64 104.4C217.12 105.44 217.72 105.96 218.44 105.96C220.12 105.96 222.12 104.94 224.44 102.9ZM218.5 113.22C215.54 113.22 212.9 111.78 210.58 108.9C208.26 105.98 207.1 103.08 207.1 100.2C207.1 96.52 207.8 92.76 209.2 88.92C210.6 85.04 212.34 81.7 214.42 78.9C216.54 76.06 218.86 73.74 221.38 71.94C223.9 70.1 226.22 69.18 228.34 69.18C232.22 69.18 235.4 70.84 237.88 74.16C240.36 77.44 241.6 81.14 241.6 85.26C241.6 89.38 240.56 93.56 238.48 97.8C236.4 102 233.52 105.62 229.84 108.66C226.2 111.7 222.42 113.22 218.5 113.22ZM252.528 69.18C253.528 69.18 254.788 69.9 256.308 71.34C257.868 72.78 258.648 74.2 258.648 75.6C258.648 76.96 257.928 80.52 256.488 86.28C255.048 92.04 254.328 96.02 254.328 98.22C254.328 100.38 254.588 102.04 255.108 103.2C255.668 104.36 256.428 104.94 257.388 104.94C258.388 104.94 259.548 104.24 260.868 102.84C262.188 101.4 263.448 99.56 264.648 97.32C265.888 95.04 266.908 92.34 267.708 89.22C268.548 86.06 268.968 83.14 268.968 80.46C268.968 77.74 268.828 75.56 268.548 73.92C268.308 72.28 268.188 71.3 268.188 70.98C268.188 69.74 268.708 69.12 269.748 69.12C271.028 69.12 272.668 70.2 274.668 72.36C276.708 74.52 277.728 77.1 277.728 80.1C277.728 83.06 277.208 86.48 276.168 90.36C275.128 94.2 273.728 97.84 271.968 101.28C270.208 104.72 267.968 107.58 265.248 109.86C262.568 112.14 259.808 113.28 256.968 113.28C254.168 113.28 251.628 111.8 249.348 108.84C247.068 105.88 245.928 102.86 245.928 99.78C245.928 96.7 246.328 93.14 247.128 89.1C247.928 85.02 248.728 81.36 249.528 78.12C250.328 74.88 250.728 72.58 250.728 71.22C250.728 69.86 251.328 69.18 252.528 69.18ZM312.032 111.06C312.032 112.7 310.892 113.52 308.612 113.52C305.492 113.52 302.212 111.9 298.772 108.66C295.372 105.42 292.952 102.04 291.512 98.52C290.872 100.44 290.432 101.74 290.192 102.42C289.952 103.1 289.592 104.18 289.112 105.66C288.632 107.14 288.252 108.24 287.972 108.96C287.732 109.68 287.452 110.44 287.132 111.24C286.532 112.76 285.952 113.52 285.392 113.52C284.472 113.52 283.352 112.76 282.032 111.24C280.752 109.68 280.112 108.42 280.112 107.46C280.112 106.5 280.572 104.72 281.492 102.12C284.212 94.16 285.772 86.9 286.172 80.34C285.412 79.74 284.732 78.9 284.132 77.82C283.532 76.74 283.232 75.84 283.232 75.12C283.232 73.92 284.772 72.66 287.852 71.34C290.972 70.02 294.552 69.36 298.592 69.36C302.672 69.36 306.072 70.32 308.792 72.24C311.512 74.16 312.872 76.66 312.872 79.74C312.872 82.02 312.192 84.22 310.832 86.34C309.512 88.42 308.052 90.06 306.452 91.26C304.892 92.42 303.432 93.48 302.072 94.44C300.752 95.4 300.092 96.02 300.092 96.3C300.092 97.26 300.412 98.18 301.052 99.06C301.692 99.9 302.592 100.9 303.752 102.06C304.912 103.18 305.912 104.14 306.752 104.94C307.592 105.7 308.272 106.34 308.792 106.86C309.352 107.38 309.892 107.92 310.412 108.48C311.492 109.52 312.032 110.38 312.032 111.06ZM303.632 80.34C303.632 78.66 301.992 77.82 298.712 77.82C297.152 77.82 295.292 78.26 293.132 79.14C294.132 80.66 294.632 82.06 294.632 83.34C294.632 85.66 294.312 88.22 293.672 91.02C294.112 90.7 294.932 90.14 296.132 89.34C297.332 88.5 298.252 87.84 298.892 87.36C299.572 86.84 300.332 86.18 301.172 85.38C302.812 83.82 303.632 82.14 303.632 80.34ZM345.487 69C346.647 69 347.927 69.6 349.327 70.8C350.767 72 351.487 72.98 351.487 73.74C351.487 76.26 350.887 80.64 349.687 86.88C348.527 93.08 347.027 99.02 345.187 104.7C343.347 110.38 341.687 113.22 340.207 113.22C339.607 113.22 338.827 112.9 337.867 112.26C336.907 111.58 336.267 110.8 335.947 109.92C335.627 109 335.007 107.12 334.087 104.28C331.967 97.76 329.967 92.36 328.087 88.08C327.807 89.28 327.427 90.98 326.947 93.18C326.507 95.38 326.147 97.12 325.867 98.4C325.587 99.64 325.247 101.16 324.847 102.96C324.447 104.72 324.087 106.12 323.767 107.16C323.487 108.2 323.167 109.24 322.807 110.28C322.167 112.24 321.567 113.22 321.007 113.22C320.207 113.22 319.167 112.5 317.887 111.06C316.607 109.58 315.967 108.32 315.967 107.28C315.967 106.2 317.107 100.62 319.387 90.54C321.707 80.46 322.967 74.14 323.167 71.58C323.287 70.06 323.747 69.3 324.547 69.3C325.227 69.3 326.087 69.7 327.127 70.5C328.207 71.3 329.127 72.28 329.887 73.44C330.687 74.56 332.107 78.26 334.147 84.54C336.187 90.82 337.807 95.32 339.007 98.04C340.567 93.4 342.007 86.4 343.327 77.04C343.847 73.32 344.187 71.06 344.347 70.26C344.507 69.42 344.887 69 345.487 69ZM382.438 90.72C384.038 90.72 385.178 90.88 385.858 91.2C386.578 91.48 386.938 92.02 386.938 92.82C386.938 93.9 385.198 95 381.718 96.12C381.798 99.16 381.838 102.08 381.838 104.88C381.838 107.64 381.618 109.72 381.178 111.12C380.738 112.48 380.038 113.16 379.078 113.16C378.118 113.16 377.358 112.68 376.798 111.72C376.278 110.72 375.838 109.1 375.478 106.86C375.158 104.62 374.818 101.66 374.458 97.98C370.378 98.9 367.438 99.64 365.638 100.2C362.518 108.84 360.438 113.16 359.398 113.16C358.558 113.16 357.438 112.6 356.038 111.48C354.678 110.36 353.998 109.2 353.998 108C353.998 107.32 354.778 105.2 356.338 101.64C355.658 101.2 355.058 100.58 354.538 99.78C354.058 98.94 353.818 98.14 353.818 97.38C353.818 96.06 355.798 94.8 359.758 93.6C360.078 92.8 360.398 91.9 360.718 90.9C361.078 89.86 361.938 87.46 363.298 83.7C364.698 79.94 365.798 76.8 366.598 74.28C366.958 73.08 368.198 71.96 370.318 70.92C372.478 69.88 374.158 69.36 375.358 69.36C376.758 69.36 377.998 71.3 379.078 75.18C380.198 79.06 380.978 84.24 381.418 90.72H382.438ZM368.578 91.74C369.778 91.58 371.518 91.38 373.798 91.14C373.678 89.98 373.478 88 373.198 85.2C372.958 82.4 372.778 80.38 372.658 79.14C371.978 81.38 370.618 85.58 368.578 91.74ZM402.771 68.4C403.771 68.4 404.991 69.06 406.431 70.38C407.871 71.7 408.591 73.06 408.591 74.46C408.591 78.3 406.611 85.74 402.651 96.78C401.291 100.66 400.611 103.36 400.611 104.88C400.611 105.08 400.651 105.2 400.731 105.24C400.811 105.28 401.551 105.3 402.951 105.3C404.351 105.3 406.271 105.1 408.711 104.7C411.191 104.26 413.191 103.84 414.711 103.44C416.271 103.04 417.191 102.84 417.471 102.84C418.471 102.84 418.971 103.48 418.971 104.76C418.971 107.28 417.051 109.32 413.211 110.88C409.411 112.4 404.991 113.16 399.951 113.16C397.991 113.16 396.191 112.44 394.551 111C392.951 109.52 392.151 107.9 392.151 106.14C392.151 104.38 393.631 98.7 396.591 89.1C399.551 79.46 401.031 73.22 401.031 70.38C401.031 69.06 401.611 68.4 402.771 68.4Z" fill="#FEB6FB"/>
</svg>
