<svg width="600" height="550" viewBox="0 0 600 550" fill="none" xmlns="http://www.w3.org/2000/svg">
<rect width="600" height="550" fill="#F2F2F2"/>
<path d="M45.9677 185.835C42.0077 186.055 39.8443 186.165 39.4777 186.165C38.5977 186.165 37.7177 185.633 36.8377 184.57C35.9577 183.47 35.5177 182.333 35.5177 181.16C35.5177 179.363 40.7427 178.465 51.1927 178.465C56.546 178.465 60.4877 179.015 63.0177 180.115C65.5477 181.215 66.8127 182.553 66.8127 184.13C66.8127 184.607 66.5377 185.065 65.9877 185.505C65.4377 185.908 64.741 186.11 63.8977 186.11C63.0543 186.11 61.5143 186.055 59.2777 185.945C57.041 185.835 55.006 185.762 53.1727 185.725C53.3193 186.165 53.3927 186.678 53.3927 187.265C53.3927 187.852 53.1727 189.007 52.7327 190.73C52.3293 192.453 51.7427 194.855 50.9727 197.935C50.2027 200.978 49.3593 204.682 48.4427 209.045C47.526 213.372 46.8843 215.957 46.5177 216.8C46.1877 217.607 45.8577 218.01 45.5277 218.01C44.7577 218.01 43.786 217.313 42.6127 215.92C41.476 214.49 40.9077 213.335 40.9077 212.455C40.9077 211.575 41.6593 207.945 43.1627 201.565C44.666 195.148 45.601 189.905 45.9677 185.835ZM70.6597 176.87C70.6597 175.33 71.2647 174.56 72.4747 174.56C73.4647 174.56 74.6013 175.385 75.8847 177.035C77.168 178.685 77.8097 180.097 77.8097 181.27C77.8097 182.443 77.5713 184.093 77.0947 186.22C76.618 188.347 76.123 190.29 75.6097 192.05C75.133 193.81 74.3997 196.322 73.4097 199.585C72.4197 202.812 71.7413 205.067 71.3747 206.35C73.758 201.51 76.2697 197.568 78.9097 194.525C81.5863 191.482 83.823 189.96 85.6197 189.96C86.7563 189.96 88.058 190.968 89.5247 192.985C90.9913 194.965 91.7247 196.762 91.7247 198.375C91.7247 199.952 91.4313 202.262 90.8447 205.305C90.258 208.348 89.2313 211.282 87.7647 214.105C86.298 216.928 84.7947 218.34 83.2547 218.34C82.0447 218.34 81.4397 217.478 81.4397 215.755C81.4397 214.508 81.8063 212.473 82.5397 209.65C83.603 205.433 84.1347 202.867 84.1347 201.95C84.1347 201.033 83.988 200.575 83.6947 200.575C81.568 200.575 78.4513 204.113 74.3447 211.19C72.9513 213.61 71.778 215.407 70.8247 216.58C69.908 217.753 69.028 218.34 68.1847 218.34C67.3413 218.34 66.3147 217.662 65.1047 216.305C63.9313 214.948 63.3447 213.903 63.3447 213.17C63.3447 212.4 63.4913 211.282 63.7847 209.815C64.1147 208.348 64.5913 206.258 65.2147 203.545C65.8747 200.832 66.938 195.918 68.4047 188.805C69.908 181.655 70.6597 177.677 70.6597 176.87ZM118.151 202.72C118.811 203.307 119.141 203.838 119.141 204.315C119.141 204.792 118.921 205.782 118.481 207.285C118.041 208.788 117.748 209.962 117.601 210.805C117.454 211.612 117.326 212.253 117.216 212.73C117.143 213.207 117.088 213.592 117.051 213.885C117.014 214.142 116.941 214.472 116.831 214.875C116.758 215.278 116.684 215.608 116.611 215.865C116.574 216.085 116.501 216.36 116.391 216.69C116.318 216.983 116.226 217.222 116.116 217.405C116.006 217.552 115.878 217.717 115.731 217.9C115.511 218.193 115.144 218.34 114.631 218.34C114.118 218.34 113.476 217.827 112.706 216.8C111.973 215.773 111.423 214.527 111.056 213.06C107.609 216.58 104.713 218.34 102.366 218.34C100.789 218.34 99.0842 217.478 97.2509 215.755C95.4175 213.995 94.5009 212.253 94.5009 210.53C94.5009 208.77 95.2892 206.277 96.8659 203.05C98.4425 199.823 100.588 196.835 103.301 194.085C106.051 191.335 108.764 189.96 111.441 189.96C112.981 189.96 114.759 190.858 116.776 192.655C118.793 194.452 119.801 196.102 119.801 197.605C119.801 199.072 119.251 200.777 118.151 202.72ZM102.146 211.41C103.613 211.41 105.556 210.42 107.976 208.44C110.433 206.423 111.954 203.893 112.541 200.85C112.578 200.41 112.889 200.153 113.476 200.08C113.366 197.99 113.018 196.945 112.431 196.945C110.964 196.945 109.314 197.898 107.481 199.805C105.684 201.712 104.199 203.747 103.026 205.91C101.889 208.073 101.321 209.668 101.321 210.695C101.321 210.988 101.358 211.19 101.431 211.3C101.541 211.373 101.779 211.41 102.146 211.41ZM143.053 189.96C144.96 189.96 146.628 190.822 148.058 192.545C149.525 194.232 150.258 196.047 150.258 197.99C150.258 201.107 149.745 204.37 148.718 207.78C147.728 211.153 146.628 213.757 145.418 215.59C144.245 217.423 143.035 218.34 141.788 218.34C140.578 218.34 139.973 217.478 139.973 215.755C139.973 214.435 140.578 211.777 141.788 207.78C142.705 204.48 143.163 202.115 143.163 200.685C143.163 199.255 142.98 198.54 142.613 198.54C142.136 198.54 141.66 198.778 141.183 199.255C140.743 199.732 140.376 200.153 140.083 200.52C139.79 200.887 139.441 201.363 139.038 201.95C138.671 202.5 138.341 203.013 138.048 203.49C137.791 203.93 137.443 204.517 137.003 205.25C136.6 205.947 136.27 206.533 136.013 207.01C135.756 207.45 135.426 208.037 135.023 208.77C131.613 215.15 128.936 218.34 126.993 218.34C126.223 218.34 125.251 217.68 124.078 216.36C122.905 215.003 122.318 214.013 122.318 213.39C122.318 212.987 122.575 212.125 123.088 210.805C123.638 209.448 124.023 208.422 124.243 207.725C124.5 206.992 124.701 206.222 124.848 205.415C125.031 204.608 125.178 203.747 125.288 202.83C125.398 201.877 125.471 201.143 125.508 200.63C125.581 200.117 125.655 199.31 125.728 198.21C126.058 193.443 126.333 190.803 126.553 190.29C126.81 189.777 127.085 189.52 127.378 189.52C128.771 189.52 130.11 190.107 131.393 191.28C132.676 192.417 133.318 193.462 133.318 194.415C133.318 196.688 132.731 199.952 131.558 204.205C133.941 200.025 136.105 196.615 138.048 193.975C140.028 191.298 141.696 189.96 143.053 189.96ZM158.382 218.34C157.539 218.34 156.475 217.662 155.192 216.305C153.945 214.948 153.322 213.867 153.322 213.06C153.322 212.84 153.927 210.658 155.137 206.515C156.384 202.372 157.612 197.385 158.822 191.555C160.069 185.725 160.692 180.628 160.692 176.265C160.692 175.128 161.205 174.56 162.232 174.56C163.112 174.56 164.267 175.367 165.697 176.98C167.164 178.557 167.897 180.042 167.897 181.435C167.897 183.452 167.164 187.265 165.697 192.875C164.267 198.485 162.837 202.903 161.407 206.13C161.884 205.507 162.525 204.682 163.332 203.655C164.175 202.592 164.854 201.73 165.367 201.07C165.88 200.41 166.504 199.603 167.237 198.65C168.007 197.697 168.649 196.927 169.162 196.34C169.675 195.717 170.244 195.038 170.867 194.305C171.49 193.535 172.022 192.93 172.462 192.49C172.939 192.013 173.415 191.573 173.892 191.17C174.772 190.363 175.45 189.96 175.927 189.96C176.844 189.96 177.852 190.583 178.952 191.83C180.052 193.04 180.602 194.103 180.602 195.02C180.602 195.387 179.814 196.23 178.237 197.55C176.697 198.87 175.139 200.337 173.562 201.95C172.022 203.563 171.252 205.012 171.252 206.295C171.252 207.542 171.619 208.77 172.352 209.98C173.122 211.153 173.947 212.052 174.827 212.675C175.707 213.298 176.514 213.94 177.247 214.6C178.017 215.223 178.402 215.755 178.402 216.195C178.402 217.625 177.43 218.34 175.487 218.34C173.177 218.34 170.115 216.397 166.302 212.51L164.982 211.19C161.682 215.957 159.482 218.34 158.382 218.34ZM222.068 191.335C222.288 190.418 222.893 189.96 223.883 189.96C224.873 189.96 225.882 190.583 226.908 191.83C227.972 193.077 228.503 194.488 228.503 196.065C228.503 196.982 228.173 198.43 227.513 200.41C226.853 202.39 226.377 203.802 226.083 204.645C225.827 205.488 225.442 206.643 224.928 208.11C224.415 209.54 223.938 210.878 223.498 212.125C223.095 213.335 222.527 214.967 221.793 217.02C221.097 219.073 220.455 220.98 219.868 222.74C218.732 226.04 217.338 228.588 215.688 230.385C214.075 232.182 211.967 233.08 209.363 233.08C206.76 233.08 204.432 232.383 202.378 230.99C200.325 229.633 199.298 228.258 199.298 226.865C199.298 226.022 199.665 225.087 200.398 224.06C201.168 223.033 201.81 222.52 202.323 222.52C202.873 222.52 203.57 222.942 204.413 223.785C205.293 224.665 206.192 225.527 207.108 226.37C208.025 227.25 208.832 227.69 209.528 227.69C210.005 227.69 210.39 227.47 210.683 227.03C211.013 226.59 211.27 226.187 211.453 225.82C211.673 225.49 211.893 225.013 212.113 224.39C212.333 223.803 212.535 223.253 212.718 222.74C212.902 222.227 213.122 221.548 213.378 220.705C213.635 219.862 213.855 219.11 214.038 218.45C214.662 216.47 215.193 214.71 215.633 213.17C214.423 214.747 213.177 216.012 211.893 216.965C210.61 217.882 209.418 218.34 208.318 218.34C207.255 218.34 205.917 217.533 204.303 215.92C202.727 214.27 201.938 212.473 201.938 210.53C201.938 208.55 202.36 205.91 203.203 202.61C204.083 199.31 205.165 196.377 206.448 193.81C207.732 191.243 208.868 189.96 209.858 189.96C210.995 189.96 212.058 190.455 213.048 191.445C214.075 192.398 214.588 193.333 214.588 194.25C214.588 195.13 214.13 196.56 213.213 198.54C212.333 200.52 211.435 202.683 210.518 205.03C209.602 207.377 209.143 209.375 209.143 211.025C209.143 211.245 209.235 211.355 209.418 211.355C209.895 211.355 210.903 210.475 212.443 208.715C213.983 206.918 215.707 204.388 217.613 201.125C219.557 197.825 221.042 194.562 222.068 191.335ZM237.882 212.73C239.862 211.85 241.586 210.072 243.052 207.395C244.519 204.718 245.252 202.207 245.252 199.86C245.252 197.513 244.922 195.9 244.262 195.02C242.686 195.937 241.109 197.862 239.532 200.795C237.992 203.728 237.222 206.313 237.222 208.55C237.222 210.75 237.442 212.143 237.882 212.73ZM229.852 209.1C229.852 204.517 231.264 200.172 234.087 196.065C236.947 191.958 239.771 189.905 242.557 189.905C245.344 189.905 247.691 190.895 249.597 192.875C251.504 194.818 252.457 197.183 252.457 199.97C252.457 202.72 251.797 205.525 250.477 208.385C249.157 211.245 247.306 213.628 244.922 215.535C242.539 217.405 239.991 218.34 237.277 218.34C235.261 218.34 233.519 217.442 232.052 215.645C230.586 213.848 229.852 211.667 229.852 209.1ZM274.515 191.335C274.809 190.418 275.395 189.96 276.275 189.96C277.155 189.96 278.164 190.712 279.3 192.215C280.474 193.718 281.06 195.02 281.06 196.12C281.06 196.523 280.217 199.218 278.53 204.205C276.844 209.192 275.542 213.133 274.625 216.03C274.112 217.57 273.25 218.34 272.04 218.34C271.307 218.34 270.684 218.083 270.17 217.57C269.694 217.02 269.455 216.177 269.455 215.04C269.455 213.903 269.675 212.29 270.115 210.2C266.339 215.627 263.332 218.34 261.095 218.34C259.922 218.34 258.51 217.588 256.86 216.085C255.21 214.545 254.385 213.06 254.385 211.63C254.385 208.11 255.375 203.618 257.355 198.155C259.372 192.692 261.26 189.96 263.02 189.96C264.084 189.96 265.019 190.437 265.825 191.39C266.669 192.343 267.09 193.388 267.09 194.525C267.09 194.965 266.632 196.193 265.715 198.21C262.929 204.26 261.535 208.532 261.535 211.025C261.535 211.245 261.627 211.355 261.81 211.355C262.36 211.355 263.387 210.493 264.89 208.77C266.43 207.01 268.135 204.517 270.005 201.29C271.912 198.027 273.415 194.708 274.515 191.335ZM324.406 185.56C324.259 184.717 324.021 183.947 323.691 183.25C323.361 182.553 322.957 182.205 322.481 182.205C322.041 182.205 321.582 182.535 321.106 183.195C320.666 183.855 320.226 184.937 319.786 186.44C319.089 188.787 318.392 191.518 317.696 194.635C320.482 194.488 322.572 194.415 323.966 194.415C325.396 194.415 326.459 194.635 327.156 195.075C327.852 195.478 328.201 195.973 328.201 196.56C328.201 197.697 327.174 198.577 325.121 199.2C323.067 199.823 320.097 200.428 316.211 201.015C314.377 208.678 313.094 213.482 312.361 215.425C311.627 217.332 310.821 218.285 309.941 218.285C309.244 218.285 308.419 217.717 307.466 216.58C306.549 215.407 306.091 214.527 306.091 213.94C306.091 213.353 306.219 212.657 306.476 211.85C307.612 208.66 308.474 205.58 309.061 202.61C307.961 202.903 306.971 203.05 306.091 203.05C305.247 203.05 304.404 202.665 303.561 201.895C302.717 201.088 302.296 200.117 302.296 198.98C302.296 197.66 304.936 196.523 310.216 195.57C311.279 188.53 312.764 183.433 314.671 180.28C316.577 177.09 319.327 175.495 322.921 175.495C324.644 175.495 326.221 176.338 327.651 178.025C329.081 179.712 329.796 181.71 329.796 184.02C329.796 185.523 329.557 186.715 329.081 187.595C328.604 188.438 327.981 188.86 327.211 188.86C326.441 188.86 325.817 188.512 325.341 187.815C324.901 187.118 324.589 186.367 324.406 185.56ZM334.777 212.73C336.757 211.85 338.48 210.072 339.947 207.395C341.414 204.718 342.147 202.207 342.147 199.86C342.147 197.513 341.817 195.9 341.157 195.02C339.58 195.937 338.004 197.862 336.427 200.795C334.887 203.728 334.117 206.313 334.117 208.55C334.117 210.75 334.337 212.143 334.777 212.73ZM326.747 209.1C326.747 204.517 328.159 200.172 330.982 196.065C333.842 191.958 336.665 189.905 339.452 189.905C342.239 189.905 344.585 190.895 346.492 192.875C348.399 194.818 349.352 197.183 349.352 199.97C349.352 202.72 348.692 205.525 347.372 208.385C346.052 211.245 344.2 213.628 341.817 215.535C339.434 217.405 336.885 218.34 334.172 218.34C332.155 218.34 330.414 217.442 328.947 215.645C327.48 213.848 326.747 211.667 326.747 209.1ZM355.13 199.255L354.8 193.04C354.8 190.987 355.442 189.96 356.725 189.96C357.458 189.96 358.173 190.235 358.87 190.785C359.603 191.335 360.153 192.197 360.52 193.37C361.767 192.27 363.123 191.39 364.59 190.73C366.093 190.033 367.413 189.685 368.55 189.685C371.227 189.685 372.565 190.327 372.565 191.61C372.565 192.27 372.437 192.765 372.18 193.095C371.96 193.388 371.777 193.608 371.63 193.755C371.52 193.902 371.3 194.103 370.97 194.36C370.677 194.58 370.457 194.745 370.31 194.855C369.467 195.405 368.862 195.79 368.495 196.01C366.845 197.037 365.433 198.283 364.26 199.75C363.087 201.18 362.207 203.178 361.62 205.745C360.63 209.962 359.658 213.115 358.705 215.205C357.788 217.258 356.743 218.285 355.57 218.285C354.433 218.285 353.572 217.735 352.985 216.635C352.435 215.535 352.16 214.508 352.16 213.555C352.16 212.565 352.508 211.098 353.205 209.155C353.938 207.212 354.433 205.543 354.69 204.15C354.983 202.72 355.13 201.088 355.13 199.255ZM396.219 199.255L395.889 193.04C395.889 190.987 396.531 189.96 397.814 189.96C398.547 189.96 399.262 190.235 399.959 190.785C400.692 191.335 401.242 192.197 401.609 193.37C402.856 192.27 404.212 191.39 405.679 190.73C407.182 190.033 408.502 189.685 409.639 189.685C412.316 189.685 413.654 190.327 413.654 191.61C413.654 192.27 413.526 192.765 413.269 193.095C413.049 193.388 412.866 193.608 412.719 193.755C412.609 193.902 412.389 194.103 412.059 194.36C411.766 194.58 411.546 194.745 411.399 194.855C410.556 195.405 409.951 195.79 409.584 196.01C407.934 197.037 406.522 198.283 405.349 199.75C404.176 201.18 403.296 203.178 402.709 205.745C401.719 209.962 400.747 213.115 399.794 215.205C398.877 217.258 397.832 218.285 396.659 218.285C395.522 218.285 394.661 217.735 394.074 216.635C393.524 215.535 393.249 214.508 393.249 213.555C393.249 212.565 393.597 211.098 394.294 209.155C395.027 207.212 395.522 205.543 395.779 204.15C396.072 202.72 396.219 201.088 396.219 199.255ZM437.761 200.245C437.761 202.042 436.532 203.655 434.076 205.085C431.656 206.515 429.162 207.23 426.596 207.23C424.029 207.23 421.921 207.047 420.271 206.68C419.941 207.67 419.776 208.66 419.776 209.65C419.776 210.64 419.941 211.355 420.271 211.795C420.601 212.198 421.426 212.4 422.746 212.4C425.496 212.4 427.842 212.143 429.786 211.63C431.766 211.117 432.792 210.86 432.866 210.86C434.369 210.86 435.121 211.355 435.121 212.345C435.121 213.775 433.929 215.132 431.546 216.415C429.199 217.698 426.467 218.34 423.351 218.34C420.271 218.34 417.796 217.368 415.926 215.425C414.056 213.482 413.121 211.19 413.121 208.55C413.121 205.873 413.891 203.087 415.431 200.19C417.007 197.293 418.969 194.873 421.316 192.93C423.662 190.95 425.991 189.96 428.301 189.96C430.647 189.96 432.811 191.115 434.791 193.425C436.771 195.698 437.761 197.972 437.761 200.245ZM431.381 199.365C431.381 198.998 430.996 198.467 430.226 197.77C429.456 197.073 428.722 196.725 428.026 196.725C427.366 196.725 426.504 197.22 425.441 198.21C424.377 199.163 423.369 200.41 422.416 201.95C422.746 201.987 423.222 202.005 423.846 202.005C428.869 202.005 431.381 201.125 431.381 199.365ZM463.351 202.72C464.011 203.307 464.341 203.838 464.341 204.315C464.341 204.792 464.121 205.782 463.681 207.285C463.241 208.788 462.948 209.962 462.801 210.805C462.654 211.612 462.526 212.253 462.416 212.73C462.343 213.207 462.288 213.592 462.251 213.885C462.214 214.142 462.141 214.472 462.031 214.875C461.958 215.278 461.884 215.608 461.811 215.865C461.774 216.085 461.701 216.36 461.591 216.69C461.518 216.983 461.426 217.222 461.316 217.405C461.206 217.552 461.078 217.717 460.931 217.9C460.711 218.193 460.344 218.34 459.831 218.34C459.318 218.34 458.676 217.827 457.906 216.8C457.173 215.773 456.623 214.527 456.256 213.06C452.809 216.58 449.913 218.34 447.566 218.34C445.989 218.34 444.284 217.478 442.451 215.755C440.618 213.995 439.701 212.253 439.701 210.53C439.701 208.77 440.489 206.277 442.066 203.05C443.643 199.823 445.788 196.835 448.501 194.085C451.251 191.335 453.964 189.96 456.641 189.96C458.181 189.96 459.959 190.858 461.976 192.655C463.993 194.452 465.001 196.102 465.001 197.605C465.001 199.072 464.451 200.777 463.351 202.72ZM447.346 211.41C448.813 211.41 450.756 210.42 453.176 208.44C455.633 206.423 457.154 203.893 457.741 200.85C457.778 200.41 458.089 200.153 458.676 200.08C458.566 197.99 458.218 196.945 457.631 196.945C456.164 196.945 454.514 197.898 452.681 199.805C450.884 201.712 449.399 203.747 448.226 205.91C447.089 208.073 446.521 209.668 446.521 210.695C446.521 210.988 446.558 211.19 446.631 211.3C446.741 211.373 446.979 211.41 447.346 211.41ZM491.498 174.56C492.378 174.56 493.533 175.367 494.963 176.98C496.393 178.557 497.108 180.042 497.108 181.435C497.108 182.132 496.467 185.028 495.183 190.125C493.9 195.222 493.13 198.302 492.873 199.365C489.94 212.015 487.795 218.34 486.438 218.34C485.668 218.34 484.807 217.882 483.853 216.965C482.9 216.048 482.423 215.15 482.423 214.27C482.423 214.087 482.442 213.94 482.478 213.83C478.812 216.837 476.172 218.34 474.558 218.34C472.982 218.34 471.442 217.497 469.938 215.81C468.472 214.087 467.738 212.528 467.738 211.135C467.738 209.742 467.922 208.202 468.288 206.515C468.692 204.792 469.297 202.977 470.103 201.07C470.91 199.163 471.827 197.385 472.853 195.735C473.917 194.048 475.182 192.673 476.648 191.61C478.152 190.51 479.692 189.96 481.268 189.96C483.615 189.96 485.54 191.152 487.043 193.535C489.023 184.845 489.977 179.07 489.903 176.21C489.903 175.11 490.435 174.56 491.498 174.56ZM475.273 211.355C476.19 211.355 477.73 210.567 479.893 208.99C482.093 207.413 483.725 205.415 484.788 202.995C484.752 202.702 484.733 202.06 484.733 201.07C484.733 200.08 484.403 199.145 483.743 198.265C483.083 197.385 482.478 196.945 481.928 196.945C480.828 196.945 479.765 197.532 478.738 198.705C477.748 199.878 476.96 201.272 476.373 202.885C475.127 206.295 474.503 208.88 474.503 210.64C474.503 210.933 474.54 211.135 474.613 211.245C474.723 211.318 474.943 211.355 475.273 211.355ZM503.052 183.085C503.052 182.132 503.473 181.16 504.317 180.17C505.197 179.143 506.04 178.63 506.847 178.63C507.69 178.63 508.68 179.62 509.817 181.6C510.953 183.58 511.522 185.028 511.522 185.945C511.522 186.825 511.228 187.503 510.642 187.98C510.055 188.457 509.45 188.695 508.827 188.695C507.763 188.695 506.535 187.998 505.142 186.605C503.748 185.212 503.052 184.038 503.052 183.085ZM503.877 189.96C505.16 189.96 506.297 190.693 507.287 192.16C508.313 193.627 508.827 195.038 508.827 196.395C508.827 197.092 508.185 199.603 506.902 203.93C505.655 208.22 504.408 212.29 503.162 216.14C502.722 217.57 501.823 218.285 500.467 218.285C499.66 218.285 498.945 217.992 498.322 217.405C497.735 216.782 497.442 215.993 497.442 215.04C497.442 214.05 497.9 211.63 498.817 207.78C499.77 203.893 500.485 200.593 500.962 197.88C501.475 195.13 501.933 193.132 502.337 191.885C502.777 190.602 503.29 189.96 503.877 189.96ZM532.189 189.96C534.095 189.96 535.764 190.822 537.194 192.545C538.66 194.232 539.394 196.047 539.394 197.99C539.394 201.107 538.88 204.37 537.854 207.78C536.864 211.153 535.764 213.757 534.554 215.59C533.38 217.423 532.17 218.34 530.924 218.34C529.714 218.34 529.109 217.478 529.109 215.755C529.109 214.435 529.714 211.777 530.924 207.78C531.84 204.48 532.299 202.115 532.299 200.685C532.299 199.255 532.115 198.54 531.749 198.54C531.272 198.54 530.795 198.778 530.319 199.255C529.879 199.732 529.512 200.153 529.219 200.52C528.925 200.887 528.577 201.363 528.174 201.95C527.807 202.5 527.477 203.013 527.184 203.49C526.927 203.93 526.579 204.517 526.139 205.25C525.735 205.947 525.405 206.533 525.149 207.01C524.892 207.45 524.562 208.037 524.159 208.77C520.749 215.15 518.072 218.34 516.129 218.34C515.359 218.34 514.387 217.68 513.214 216.36C512.04 215.003 511.454 214.013 511.454 213.39C511.454 212.987 511.71 212.125 512.224 210.805C512.774 209.448 513.159 208.422 513.379 207.725C513.635 206.992 513.837 206.222 513.984 205.415C514.167 204.608 514.314 203.747 514.424 202.83C514.534 201.877 514.607 201.143 514.644 200.63C514.717 200.117 514.79 199.31 514.864 198.21C515.194 193.443 515.469 190.803 515.689 190.29C515.945 189.777 516.22 189.52 516.514 189.52C517.907 189.52 519.245 190.107 520.529 191.28C521.812 192.417 522.454 193.462 522.454 194.415C522.454 196.688 521.867 199.952 520.694 204.205C523.077 200.025 525.24 196.615 527.184 193.975C529.164 191.298 530.832 189.96 532.189 189.96ZM564.128 201.84C564.678 202.463 564.953 203.215 564.953 204.095C564.953 204.975 564.586 206.057 563.853 207.34C562.936 209.54 562.129 212.272 561.433 215.535C560.736 218.798 560.039 221.402 559.343 223.345C558.683 225.325 557.949 227.012 557.143 228.405C556.373 229.798 555.309 230.953 553.953 231.87C552.596 232.787 551.038 233.245 549.278 233.245C546.821 233.245 544.621 232.438 542.678 230.825C540.734 229.212 539.763 227.818 539.763 226.645C539.763 225.508 540.074 224.463 540.698 223.51C541.321 222.593 541.889 222.135 542.403 222.135C542.953 222.135 543.466 222.428 543.943 223.015C544.456 223.602 544.914 224.225 545.318 224.885C545.758 225.582 546.326 226.223 547.023 226.81C547.719 227.397 548.489 227.69 549.333 227.69C550.176 227.69 550.946 227.14 551.643 226.04C552.339 224.94 552.871 223.748 553.238 222.465C554.154 219.458 554.723 217.313 554.943 216.03C552.449 217.57 550.414 218.34 548.838 218.34C547.298 218.34 545.794 217.497 544.328 215.81C542.861 214.087 542.128 212.473 542.128 210.97C542.128 209.43 542.531 207.523 543.338 205.25C544.181 202.94 545.244 200.648 546.528 198.375C547.848 196.065 549.498 194.085 551.478 192.435C553.494 190.785 555.511 189.96 557.528 189.96C558.884 189.96 560.039 190.308 560.993 191.005C561.946 191.665 562.643 192.563 563.083 193.7C563.853 195.68 564.238 197.917 564.238 200.41C564.238 200.777 564.201 201.253 564.128 201.84ZM548.893 210.695C548.893 211.172 549.094 211.41 549.498 211.41C550.561 211.41 552.284 210.438 554.668 208.495C557.051 206.552 558.646 204.627 559.453 202.72V201.675C559.453 199.292 559.233 197.843 558.793 197.33C558.573 197.073 558.279 196.945 557.913 196.945C556.153 196.945 554.209 198.797 552.083 202.5C549.956 206.203 548.893 208.935 548.893 210.695Z" fill="black"/>
</svg>
